<svg viewBox="0 0 32 32" xmlns="http://www.w3.org/2000/svg" xmlns:xlink="http://www.w3.org/1999/xlink" id="Icons" xml:space="preserve" overflow="hidden"><path d="M31.6 5.2C31.4 5 31 5 30.7 5 21.1 7.6 10.9 7.6 1.3 5 1 5 0.6 5 0.4 5.2 0.1 5.4 0 5.7 0 6L0 26C0 26.3 0.1 26.6 0.4 26.8 0.7 27 1 27 1.3 27 10.9 24.4 21.1 24.4 30.8 27 30.9 27 31 27 31.1 27 31.3 27 31.5 26.9 31.7 26.8 31.9 26.6 32.1 26.3 32.1 26L32.1 6C32 5.7 31.9 5.4 31.6 5.2ZM20.1 17.7 15.1 20.7C14.8 20.9 14.4 21 14.1 21 13.8 21 13.4 20.9 13.1 20.7 12.5 20.3 12.1 19.7 12.1 19L12.1 13C12.1 12.3 12.5 11.7 13.1 11.3 13.7 10.9 14.5 11 15.1 11.3L20.1 14.3C20.7 14.7 21 15.3 21 16 21 16.7 20.6 17.3 20.1 17.7Z" fill="#FFFFFF"/></svg>